<svg width="20" height="20" viewBox="0 0 20 20" fill="none" xmlns="http://www.w3.org/2000/svg">
<g id="clock" clip-path="url(#clip0_354_778)">
<path id="Vector (Stroke)" fill-rule="evenodd" clip-rule="evenodd" d="M10.0007 2.49998C5.85851 2.49998 2.50065 5.85784 2.50065 9.99998C2.50065 14.1421 5.85851 17.5 10.0007 17.5C14.1428 17.5 17.5006 14.1421 17.5006 9.99998C17.5006 5.85784 14.1428 2.49998 10.0007 2.49998ZM0.833984 9.99998C0.833984 4.93737 4.93804 0.833313 10.0007 0.833313C15.0633 0.833313 19.1673 4.93737 19.1673 9.99998C19.1673 15.0626 15.0633 19.1666 10.0007 19.1666C4.93804 19.1666 0.833984 15.0626 0.833984 9.99998Z" fill="#8D8D8D"/>
<path id="Vector (Stroke)_2" fill-rule="evenodd" clip-rule="evenodd" d="M9.99935 4.16669C10.4596 4.16669 10.8327 4.53978 10.8327 5.00002V9.48499L13.7054 10.9213C14.117 11.1272 14.2839 11.6277 14.078 12.0394C13.8722 12.451 13.3717 12.6179 12.96 12.412L9.62667 10.7454C9.34435 10.6042 9.16602 10.3157 9.16602 10V5.00002C9.16602 4.53978 9.53911 4.16669 9.99935 4.16669Z" fill="#8D8D8D"/>
</g>
<defs>
<clipPath id="clip0_354_778">
<rect width="20" height="20" fill="white"/>
</clipPath>
</defs>
</svg>
