<svg width="20" height="20" viewBox="0 0 20 20" fill="none" xmlns="http://www.w3.org/2000/svg">
<g id="wellet">
<path id="Vector (Stroke)" fill-rule="evenodd" clip-rule="evenodd" d="M3.75 6.25C3.05964 6.25 2.5 6.80964 2.5 7.5V15C2.5 15.6904 3.05964 16.25 3.75 16.25H16.25C16.9404 16.25 17.5 15.6904 17.5 15V7.5C17.5 6.80964 16.9404 6.25 16.25 6.25H3.75ZM1.25 7.5C1.25 6.11929 2.36929 5 3.75 5H16.25C17.6307 5 18.75 6.11929 18.75 7.5V15C18.75 16.3807 17.6307 17.5 16.25 17.5H3.75C2.36929 17.5 1.25 16.3807 1.25 15V7.5Z" fill="#23B40C"/>
<path id="Vector (Stroke)_2" fill-rule="evenodd" clip-rule="evenodd" d="M13.6393 1.91999C14.01 1.8503 14.3915 1.86281 14.7569 1.95664C15.1244 2.05102 15.4665 2.22533 15.7588 2.46714C16.0512 2.70896 16.2866 3.01231 16.4482 3.35557C16.6098 3.69882 16.6936 4.07351 16.6937 4.45291V5.62498H15.4437V4.45331C15.4437 4.45324 15.4437 4.45338 15.4437 4.45331C15.4437 4.25793 15.4005 4.06478 15.3172 3.88801C15.234 3.71119 15.1127 3.55491 14.9621 3.43034C14.8115 3.30577 14.6353 3.21597 14.446 3.16736C14.2567 3.11874 14.059 3.1125 13.867 3.14909L13.8552 3.15123L3.57415 4.90598C3.2725 4.96475 3.00049 5.12633 2.80458 5.36327C2.60751 5.6016 2.49979 5.90124 2.5 6.2105V8.12498H1.25V6.21111C1.25 6.21104 1.25 6.21117 1.25 6.21111C1.24969 5.61094 1.45878 5.02927 1.84124 4.56673C2.22379 4.10408 2.75579 3.78943 3.3455 3.67705L3.35735 3.67491L13.6393 1.91999Z" fill="#23B40C"/>
<path id="Vector" d="M14.375 12.5C14.1278 12.5 13.8861 12.4267 13.6805 12.2893C13.475 12.152 13.3148 11.9568 13.2202 11.7284C13.1255 11.4999 13.1008 11.2486 13.149 11.0061C13.1973 10.7637 13.3163 10.5409 13.4911 10.3661C13.6659 10.1913 13.8887 10.0723 14.1311 10.024C14.3736 9.97579 14.6249 10.0005 14.8534 10.0952C15.0818 10.1898 15.277 10.35 15.4143 10.5555C15.5517 10.7611 15.625 11.0028 15.625 11.25C15.625 11.5815 15.4933 11.8995 15.2589 12.1339C15.0245 12.3683 14.7065 12.5 14.375 12.5Z" fill="#23B40C"/>
</g>
</svg>
