<svg width="48" height="48" viewBox="0 0 48 48" fill="none" xmlns="http://www.w3.org/2000/svg">
<g id="icon" clip-path="url(#clip0_276_2561)">
<path id="Vector (Stroke)" fill-rule="evenodd" clip-rule="evenodd" d="M34.7046 1.10988C35.0384 0.2239 36.0272 -0.223741 36.9132 0.110048L44.2847 2.88719C45.1681 3.22002 45.6162 4.20446 45.2869 5.08923L42.5441 12.4607C42.2139 13.348 41.2269 13.7997 40.3396 13.4695C39.4523 13.1393 39.0006 12.1523 39.3308 11.265L40.6351 7.75953L4.96139 23.9833C4.09956 24.3753 3.08317 23.9944 2.69122 23.1325C2.29927 22.2707 2.68019 21.2543 3.54202 20.8623L39.2124 4.64007L35.7045 3.31848C34.8185 2.98469 34.3708 1.99587 34.7046 1.10988ZM36.1473 19.8613C36.7903 19.2183 37.6624 18.8571 38.5717 18.8571H43.7146C44.6239 18.8571 45.496 19.2183 46.1389 19.8613C46.7819 20.5043 47.1431 21.3764 47.1431 22.2857V46.2857C47.1431 47.2325 46.3756 48 45.4289 48H36.8574C35.9106 48 35.1431 47.2325 35.1431 46.2857V22.2857C35.1431 21.3764 35.5044 20.5043 36.1473 19.8613ZM43.7146 22.2857H38.5717V44.5714H43.7146V22.2857ZM19.0045 25.0042C19.6475 24.3612 20.5195 24 21.4289 24H26.5717C27.481 24 28.3531 24.3612 28.9961 25.0042C29.6391 25.6472 30.0003 26.5192 30.0003 27.4285V46.2857C30.0003 47.2325 29.2328 48 28.286 48H19.7146C18.7678 48 18.0003 47.2325 18.0003 46.2857V27.4285C18.0003 26.5192 18.3615 25.6472 19.0045 25.0042ZM26.5717 27.4285H21.4289V44.5714H26.5717V27.4285ZM1.86163 30.147C2.50461 29.5041 3.37668 29.1428 4.28599 29.1428H9.42885C10.3382 29.1428 11.2102 29.5041 11.8532 30.147C12.4962 30.79 12.8574 31.6621 12.8574 32.5714V46.2857C12.8574 47.2325 12.0899 48 11.1431 48H2.57171C1.62493 48 0.857422 47.2325 0.857422 46.2857V32.5714C0.857422 31.6621 1.21864 30.79 1.86163 30.147ZM9.42885 32.5714H4.28599L4.28599 44.5714H9.42885V32.5714Z" fill="#0094FF"/>
</g>
<defs>
<clipPath id="clip0_276_2561">
<rect width="48" height="48" fill="white"/>
</clipPath>
</defs>
</svg>
