<svg width="48" height="48" viewBox="0 0 48 48" fill="none" xmlns="http://www.w3.org/2000/svg">
<g id="icon" clip-path="url(#clip0_276_2555)">
<path id="Vector 1" d="M42.1295 43.0769L46.4857 43.0145C47.0435 43.0065 47.5 43.4565 47.5 44.0144V46.5C47.5 47.0523 47.0523 47.5 46.5 47.5H1.5C0.947715 47.5 0.5 47.0523 0.5 46.5V44.1377C0.5 44.0473 0.477461 43.9584 0.434424 43.8789V43.8789C0.238352 43.517 0.500443 43.0769 0.912112 43.0769H5.8705M42.1295 43.0769V8.38462C42.1295 7.83233 42.5772 7.38462 43.1295 7.38462H43.7792C44.6294 7.38462 45.0918 6.39106 44.5443 5.74065L40.4773 0.908911C40.0777 0.434199 39.3468 0.434198 38.9472 0.90891L34.8802 5.74065C34.3327 6.39106 34.7951 7.38462 35.6452 7.38462H36.6403C37.1926 7.38462 37.6403 7.83233 37.6403 8.38462V42.0769C37.6403 42.6292 37.1926 43.0769 36.6403 43.0769H33.1151C32.5628 43.0769 32.1151 42.6292 32.1151 42.0769V26.4359C32.1151 25.8836 32.5628 25.4359 33.1151 25.4359H33.1506C33.9876 25.4359 34.4543 24.4689 33.9334 23.8136L30.1353 19.036C29.7349 18.5323 28.9701 18.5324 28.5697 19.036L24.7717 23.8136C24.2508 24.4689 24.7174 25.4359 25.5545 25.4359H26.2806C26.8329 25.4359 27.2806 25.8836 27.2806 26.4359V42.0769C27.2806 42.6292 26.8329 43.0769 26.2806 43.0769H22.0647C21.5125 43.0769 21.0647 42.6292 21.0647 42.0769V17.8205C21.0647 17.2682 21.5125 16.8205 22.0647 16.8205H22.3692C23.2193 16.8205 23.6817 15.827 23.1342 15.1765L19.0893 10.3711C18.6824 9.88765 17.9347 9.89812 17.5415 10.3928L13.7213 15.1982C13.2004 15.8535 13.667 16.8205 14.5041 16.8205H15.2302C15.7825 16.8205 16.2302 17.2682 16.2302 17.8205V42.0769C16.2302 42.6292 15.7825 43.0769 15.2302 43.0769H13.1223H11.3597C10.8074 43.0769 10.3597 42.6292 10.3597 42.0769V35.4615C10.3597 34.9093 10.8074 34.4615 11.3597 34.4615H11.7405C12.5776 34.4615 13.0442 33.4945 12.5233 32.8393L8.72523 28.0616C8.32488 27.558 7.56002 27.558 7.15966 28.0616L3.3616 32.8393C2.8407 33.4945 3.30732 34.4615 4.14439 34.4615H4.8705C5.42279 34.4615 5.8705 34.9093 5.8705 35.4615V43.0769M42.1295 43.0769H5.8705" stroke="#0094FF" stroke-width="2"/>
</g>
<defs>
<clipPath id="clip0_276_2555">
<rect width="48" height="48" fill="white"/>
</clipPath>
</defs>
</svg>
