<svg width="48" height="48" viewBox="0 0 48 48" fill="none" xmlns="http://www.w3.org/2000/svg">
<g id="icon" clip-path="url(#clip0_276_2545)">
<g id="Group">
<path id="Vector (Stroke)" fill-rule="evenodd" clip-rule="evenodd" d="M24.1676 1.65036C24.2332 2.59485 23.5208 3.41371 22.5763 3.47933C18.6473 3.75228 14.8793 5.14733 11.7199 7.49874C8.56046 9.85015 6.14243 13.0591 4.75308 16.7443C3.36372 20.4295 3.06143 24.4361 3.88213 28.288C4.70282 32.14 6.612 35.6754 9.38285 38.4742C12.1537 41.273 15.6697 43.2177 19.5132 44.077C23.3568 44.9364 27.3662 44.6744 31.0652 43.3221C34.7641 41.9699 37.9972 39.5842 40.3802 36.4486C42.7633 33.313 44.1961 29.5592 44.5086 25.6332C44.5837 24.6894 45.4096 23.9852 46.3534 24.0603C47.2972 24.1354 48.0014 24.9614 47.9263 25.9052C47.5618 30.4855 45.8902 34.8649 43.11 38.5232C40.3297 42.1814 36.5578 44.9647 32.2424 46.5423C27.9269 48.1199 23.2492 48.4256 18.7651 47.423C14.281 46.4204 10.179 44.1517 6.94633 40.8864C3.71368 37.6211 1.4863 33.4964 0.528822 29.0025C-0.428657 24.5085 -0.0759875 19.8342 1.54493 15.5348C3.16585 11.2354 5.98688 7.49163 9.67287 4.74831C13.3589 2.005 17.7549 0.377446 22.3386 0.0590015C23.2831 -0.00661485 24.102 0.705859 24.1676 1.65036Z" fill="#0094FF"/>
<path id="Vector (Stroke)_2" fill-rule="evenodd" clip-rule="evenodd" d="M38.1722 0.0622433C38.7674 0.227104 39.2279 0.699382 39.3777 1.29855L40.8425 7.15783L46.7018 8.62265C47.301 8.77245 47.7733 9.23295 47.9381 9.82815C48.103 10.4234 47.9349 11.0612 47.4982 11.4979L40.6411 18.3551C40.2153 18.7809 39.5973 18.952 39.0131 18.806L33.0976 17.3271L25.2125 25.2122C24.543 25.8817 23.4576 25.8817 22.7881 25.2122C22.1187 24.5428 22.1187 23.4573 22.7881 22.7879L30.6732 14.9028L29.1944 8.98724C29.0483 8.40306 29.2195 7.78508 29.6453 7.35929L36.5024 0.502143C36.9391 0.0654274 37.577 -0.102617 38.1722 0.0622433ZM33.9854 14.015L38.903 15.2444L42.9329 11.2145L39.0131 10.2346C38.3989 10.081 37.9193 9.60145 37.7658 8.98724L36.7859 5.06746L32.756 9.09733L33.9854 14.015ZM21.8252 13.8094C22.1704 14.691 21.7355 15.6855 20.8538 16.0306C19.5272 16.55 18.3509 17.3919 17.4314 18.4801C16.5119 19.5683 15.8781 20.8686 15.5874 22.2633C15.2967 23.658 15.3583 25.1032 15.7665 26.4682C16.1747 27.8331 16.9167 29.0748 17.9254 30.0809C18.9341 31.0871 20.1777 31.8259 21.5437 32.2306C22.9097 32.6353 24.3551 32.6931 25.749 32.3988C27.143 32.1045 28.4416 31.4674 29.5275 30.5451C30.6133 29.6228 31.4522 28.4443 31.9681 27.1164C32.311 26.2339 33.3044 25.7964 34.1869 26.1393C35.0694 26.4821 35.5068 27.4755 35.164 28.358C34.4416 30.2172 33.2673 31.867 31.7471 33.1582C30.2269 34.4495 28.4088 35.3414 26.4572 35.7534C24.5057 36.1654 22.4822 36.0845 20.5698 35.5179C18.6574 34.9513 16.9164 33.917 15.5042 32.5084C14.092 31.0999 13.0532 29.3615 12.4817 27.4506C11.9102 25.5396 11.824 23.5164 12.231 21.5638C12.6379 19.6111 13.5252 17.7908 14.8125 16.2672C16.0999 14.7437 17.7466 13.5651 19.604 12.838C20.4856 12.4929 21.4801 12.9278 21.8252 13.8094Z" fill="#0094FF"/>
</g>
</g>
<defs>
<clipPath id="clip0_276_2545">
<rect width="48" height="48" fill="white"/>
</clipPath>
</defs>
</svg>
