<svg width="48" height="48" viewBox="0 0 48 48" fill="none" xmlns="http://www.w3.org/2000/svg">
<g id="icon">
<path id="Vector" d="M24 2.34375C22.9131 2.34375 21.8438 3.54375 21.8438 5.25C21.8438 6.95625 22.9131 8.15625 24 8.15625C25.0869 8.15625 26.1562 6.95625 26.1562 5.25C26.1562 3.54375 25.0869 2.34375 24 2.34375ZM14.2546 2.62266L12.7454 3.37734C14.1603 6.20719 17.5613 8.70328 20.4505 10.3563L21.7813 27.6562H23.1562V18H24.8438V27.6562H26.2187L27.5495 10.3563C30.4387 8.70328 33.8397 6.20719 35.2546 3.37734L33.7454 2.62266C31.8788 5.42578 29.5369 7.23028 27.0578 8.03859C26.3729 9.12 25.2891 9.84375 24 9.84375C22.7109 9.84375 21.6272 9.12 20.9422 8.0385C18.4631 7.23038 16.1212 5.42578 14.2546 2.62266ZM15.8438 29.3438V38.3438H2.34375V45.6562H45.6562V42.8438H32.1562V29.3438H15.8438Z" fill="#0094FF"/>
</g>
</svg>
