<svg width="48" height="48" viewBox="0 0 48 48" fill="none" xmlns="http://www.w3.org/2000/svg">
<g id="icon" clip-path="url(#clip0_276_2529)">
<path id="Vector" d="M35 22C27.832 22 22 27.832 22 35C22 42.168 27.832 48 35 48C42.168 48 48 42.168 48 35C48 27.832 42.168 22 35 22ZM35 45.5C28.936 45.5 24.5 41.064 24.5 35C24.5 28.936 28.936 24.5 35 24.5C41.064 24.5 45.5 28.936 45.5 35C45.5 41.064 41.064 45.5 35 45.5ZM40.878 31.098L42.28 32.524L35.368 39.322C34.934 39.758 34.348 40 33.724 40C33.1 40 32.516 39.758 32.074 39.314L28.374 35.728L29.764 34.29L33.476 37.89C33.674 38.088 33.79 38.068 33.956 37.904L40.878 31.098ZM24.046 22H8V20H26.994C25.94 20.564 24.952 21.236 24.046 22ZM24.046 48H0V5C0 2.242 2.242 0 5 0H31C33.758 0 36 2.242 36 5V18.03C35.668 18.01 35.336 18 35 18C34.664 18 33.832 17.98 33.5 18L33.476 5C33.476 3.346 32.654 3 31 3H5C3.346 3 3 3.346 3 5V45.5H22C22.612 46.22 23.324 47.39 24.048 48H24.046ZM28 12H8V10H28V12ZM8 30H18V32H8V30Z" fill="#0094FF"/>
</g>
<defs>
<clipPath id="clip0_276_2529">
<rect width="48" height="48" fill="white"/>
</clipPath>
</defs>
</svg>
