<svg width="30" height="37" viewBox="0 0 36 37" fill="none" xmlns="http://www.w3.org/2000/svg">
<g id="icon">
<path id="Vector (Stroke)" fill-rule="evenodd" clip-rule="evenodd" d="M23.4945 6.5115C20.8354 5.32666 17.8645 5.03313 15.0249 5.6747C12.1853 6.31627 9.62913 7.85856 7.73768 10.0716C5.84623 12.2845 4.72081 15.0497 4.52927 17.9545C4.33772 20.8594 5.09031 23.7483 6.6748 26.1905C8.25929 28.6327 10.5908 30.4973 13.3215 31.5062C16.0523 32.5151 19.036 32.6142 21.8277 31.7888C24.6194 30.9633 27.0695 29.2576 28.8126 26.926C30.5557 24.5943 31.4983 21.7617 31.5 18.8505V17.4714C31.5 16.6429 32.1716 15.9714 33 15.9714C33.8284 15.9714 34.5 16.6429 34.5 17.4714V18.8514C34.498 22.4095 33.3458 25.8724 31.2154 28.7222C29.085 31.572 26.0904 33.6568 22.6783 34.6657C19.2663 35.6745 15.6195 35.5534 12.2819 34.3203C8.94427 33.0872 6.09468 30.8083 4.15808 27.8234C2.22149 24.8385 1.30166 21.3075 1.53577 17.7571C1.76988 14.2067 3.14539 10.8272 5.45716 8.12239C7.76893 5.41762 10.8931 3.5326 14.3637 2.74846C17.8343 1.96432 21.4654 2.32307 24.7155 3.77122C25.4722 4.10839 25.8123 4.99515 25.4752 5.75186C25.138 6.50857 24.2512 6.84867 23.4945 6.5115Z" fill="white"/>
<path id="Vector (Stroke)_2" fill-rule="evenodd" clip-rule="evenodd" d="M34.0601 5.79037C34.6462 6.37587 34.6467 7.32561 34.0612 7.91169L19.0612 22.9267C18.7799 23.2082 18.3983 23.3665 18.0004 23.3666C17.6024 23.3667 17.2207 23.2086 16.9393 22.9272L12.4393 18.4272C11.8536 17.8414 11.8536 16.8917 12.4393 16.3059C13.0251 15.7201 13.9749 15.7201 14.5607 16.3059L17.9995 19.7447L31.9388 5.79143C32.5243 5.20535 33.4741 5.20488 34.0601 5.79037Z" fill="white"/>
</g>
</svg>
