<svg width="29" height="30" viewBox="0 0 29 30" fill="none" xmlns="http://www.w3.org/2000/svg">
<g id="ic:round-plus">
<path id="Vector" d="M21.3701 17.697H15.6125V23.7576C15.6125 24.0791 15.4912 24.3874 15.2752 24.6147C15.0593 24.842 14.7664 24.9697 14.461 24.9697C14.1556 24.9697 13.8627 24.842 13.6468 24.6147C13.4308 24.3874 13.3095 24.0791 13.3095 23.7576V17.697H7.55191C7.24651 17.697 6.95361 17.5693 6.73766 17.3419C6.52171 17.1146 6.40039 16.8063 6.40039 16.4848C6.40039 16.1634 6.52171 15.8551 6.73766 15.6277C6.95361 15.4004 7.24651 15.2727 7.55191 15.2727H13.3095V9.21212C13.3095 8.89065 13.4308 8.58234 13.6468 8.35502C13.8627 8.1277 14.1556 8 14.461 8C14.7664 8 15.0593 8.1277 15.2752 8.35502C15.4912 8.58234 15.6125 8.89065 15.6125 9.21212V15.2727H21.3701C21.6755 15.2727 21.9684 15.4004 22.1843 15.6277C22.4003 15.8551 22.5216 16.1634 22.5216 16.4848C22.5216 16.8063 22.4003 17.1146 22.1843 17.3419C21.9684 17.5693 21.6755 17.697 21.3701 17.697Z" fill="#282828"/>
</g>
</svg>
