<svg width="12" height="12" viewBox="0 0 12 12" fill="none" xmlns="http://www.w3.org/2000/svg">
<g id="bxs:up-arrow">
<path id="Vector" d="M10.4997 2.50001L1.49971 2.50001C1.40859 2.50029 1.31928 2.52543 1.24138 2.5727C1.16348 2.61997 1.09994 2.68759 1.05762 2.76828C1.01529 2.84898 0.995771 2.93969 1.00116 3.03065C1.00655 3.12161 1.03665 3.20938 1.08821 3.28451L5.58821 9.78451C5.77471 10.054 6.22371 10.054 6.41071 9.78451L10.9107 3.28451C10.9628 3.20954 10.9933 3.12172 10.999 3.03061C11.0047 2.9395 10.9853 2.84857 10.943 2.7677C10.9006 2.68684 10.8369 2.61913 10.7587 2.57194C10.6806 2.52474 10.591 2.49986 10.4997 2.50001Z" fill="white"/>
</g>
</svg>
