<svg width="18" height="19" viewBox="0 0 18 19" fill="none" xmlns="http://www.w3.org/2000/svg">
<g id="Group">
<path id="Vector" fill-rule="evenodd" clip-rule="evenodd" d="M12.0008 17C12.001 17.5046 11.8104 17.9906 11.4673 18.3605C11.1242 18.7305 10.654 18.9572 10.1508 18.995L10.0008 19H8.00082C7.49625 19.0002 7.01026 18.8096 6.64028 18.4665C6.2703 18.1234 6.04367 17.6532 6.00583 17.15L6.00082 17H12.0008ZM9.00082 9.54067e-10C10.8158 -2.9945e-05 12.5598 0.704894 13.8651 1.96607C15.1703 3.22726 15.9346 4.94609 15.9968 6.76L16.0008 7V10.764L17.8228 14.408C17.9023 14.567 17.9421 14.7429 17.9388 14.9206C17.9355 15.0984 17.8891 15.2727 17.8037 15.4286C17.7183 15.5845 17.5963 15.7174 17.4483 15.8158C17.3003 15.9143 17.1306 15.9754 16.9538 15.994L16.8388 16H1.16283C0.984989 16.0001 0.809792 15.957 0.652246 15.8745C0.4947 15.792 0.359504 15.6725 0.258242 15.5264C0.15698 15.3802 0.0926725 15.2116 0.0708294 15.0351C0.0489862 14.8586 0.0702592 14.6795 0.132825 14.513L0.178825 14.408L2.00083 10.764V7C2.00083 5.14348 2.73832 3.36301 4.05108 2.05025C5.36383 0.737498 7.14431 9.54069e-10 9.00082 9.54067e-10ZM9.00082 2C7.71236 2.00007 6.47366 2.49754 5.54305 3.38866C4.61243 4.27978 4.06174 5.49575 4.00583 6.783L4.00083 7V10.764C4.00084 11.012 3.95472 11.2579 3.86483 11.489L3.78983 11.659L2.61983 14H15.3828L14.2128 11.658C14.1018 11.4363 14.033 11.1959 14.0098 10.949L14.0008 10.764V7C14.0008 5.67392 13.474 4.40215 12.5364 3.46447C11.5987 2.52678 10.3269 2 9.00082 2Z" fill="#8D8D8D"/>
</g>
</svg>
