<svg width="20" height="20" viewBox="0 0 20 20" fill="none" xmlns="http://www.w3.org/2000/svg">
<g id="Group">
<path id="Vector" fill-rule="evenodd" clip-rule="evenodd" d="M4.79879 0.884006C6.02626 0.392373 7.36785 0.258349 8.66832 0.497442C9.96879 0.736535 11.175 1.33897 12.1473 2.23504C13.1197 3.13111 13.8184 4.28419 14.1627 5.56085C14.507 6.8375 14.4827 8.18555 14.0928 9.44901L18.4868 13.167C18.8826 13.5034 19.2044 13.9181 19.432 14.385C19.6595 14.8519 19.7878 15.3609 19.8089 15.8799C19.8299 16.3989 19.7432 16.9166 19.5542 17.4004C19.3652 17.8842 19.078 18.3236 18.7107 18.6909C18.3434 19.0582 17.904 19.3454 17.4202 19.5344C16.9364 19.7234 16.4187 19.8101 15.8997 19.7891C15.3807 19.7681 14.8717 19.6397 14.4048 19.4122C13.9379 19.1846 13.5231 18.8628 13.1868 18.467L9.46979 14.073C8.20622 14.4631 6.85802 14.4874 5.58122 14.1431C4.30442 13.7987 3.15123 13.0999 2.25511 12.1274C1.359 11.1549 0.756592 9.94853 0.517622 8.64789C0.278652 7.34725 0.412886 6.00553 0.904788 4.77801C1.26279 3.88401 2.38479 3.77101 2.96779 4.40501L6.17079 7.88301L7.61679 7.59501L7.90679 6.14601L4.42679 2.94801C3.79279 2.36501 3.90379 1.24201 4.79879 0.884006ZM6.80579 2.42001L9.56879 4.96001C9.89079 5.25601 10.0348 5.69801 9.94879 6.12501L9.47879 8.47901C9.43037 8.72126 9.31125 8.94374 9.13647 9.11834C8.96169 9.29294 8.73909 9.41183 8.49679 9.46001L6.14679 9.92701C5.93647 9.96883 5.71892 9.95584 5.51507 9.88929C5.31122 9.82274 5.12792 9.70487 4.98279 9.54701L2.43879 6.78501C2.33524 7.64515 2.45686 8.51744 2.79176 9.31645C3.12666 10.1155 3.66335 10.8138 4.34925 11.343C5.03516 11.8723 5.84677 12.2143 6.70459 12.3356C7.56241 12.4569 8.43703 12.3533 9.24279 12.035C9.48717 11.938 9.7558 11.9201 10.0109 11.9838C10.266 12.0475 10.4947 12.1896 10.6648 12.39L14.7148 17.176C14.8719 17.3624 15.0659 17.5141 15.2847 17.6216C15.5035 17.729 15.7422 17.7899 15.9857 17.8002C16.2292 17.8106 16.4723 17.7703 16.6994 17.6818C16.9265 17.5934 17.1328 17.4587 17.3051 17.2863C17.4775 17.114 17.6122 16.9077 17.7006 16.6806C17.7891 16.4535 17.8294 16.2105 17.819 15.9669C17.8087 15.7234 17.7478 15.4847 17.6404 15.2659C17.5329 15.0472 17.3812 14.8531 17.1948 14.696L12.4098 10.646C12.2093 10.4759 12.0673 10.2472 12.0036 9.9921C11.9399 9.73702 11.9578 9.46838 12.0548 9.22401C12.3734 8.41825 12.4772 7.54354 12.3561 6.68559C12.2349 5.82763 11.8929 5.01588 11.3636 4.32989C10.8343 3.64389 10.1358 3.10719 9.33662 2.77238C8.53745 2.43758 7.66501 2.31615 6.80479 2.42001H6.80579Z" fill="#8D8D8D"/>
</g>
</svg>
