<svg width="20" height="20" viewBox="0 0 20 20" fill="none" xmlns="http://www.w3.org/2000/svg">
<g id="arrow-down">
<path id="Vector (Stroke)" fill-rule="evenodd" clip-rule="evenodd" d="M9.99935 3.33334C10.4596 3.33334 10.8327 3.70644 10.8327 4.16668V15.8333C10.8327 16.2936 10.4596 16.6667 9.99935 16.6667C9.53911 16.6667 9.16602 16.2936 9.16602 15.8333V4.16668C9.16602 3.70644 9.53911 3.33334 9.99935 3.33334Z" fill="#23B40C"/>
<path id="Vector (Stroke)_2" fill-rule="evenodd" clip-rule="evenodd" d="M3.57806 9.41073C3.9035 9.0853 4.43114 9.0853 4.75657 9.41073L10.0007 14.6548L15.2447 9.41073C15.5702 9.0853 16.0978 9.0853 16.4232 9.41073C16.7487 9.73617 16.7487 10.2638 16.4232 10.5892L10.5899 16.4226C10.2645 16.748 9.73683 16.748 9.4114 16.4226L3.57806 10.5892C3.25263 10.2638 3.25263 9.73617 3.57806 9.41073Z" fill="#23B40C"/>
</g>
</svg>
