<svg width="14" height="14" viewBox="0 0 14 14" fill="none" xmlns="http://www.w3.org/2000/svg">
<g id="arrow-down">
<path id="Vector (Stroke)" fill-rule="evenodd" clip-rule="evenodd" d="M7.00065 11.6667C6.67848 11.6667 6.41732 11.4055 6.41732 11.0833L6.41732 2.91667C6.41732 2.5945 6.67849 2.33334 7.00065 2.33334C7.32282 2.33334 7.58399 2.5945 7.58399 2.91667L7.58398 11.0833C7.58398 11.4055 7.32282 11.6667 7.00065 11.6667Z" fill="#282828"/>
<path id="Vector (Stroke)_2" fill-rule="evenodd" clip-rule="evenodd" d="M11.4952 7.41247C11.2674 7.64028 10.898 7.64028 10.6702 7.41247L6.99935 3.74162L3.32849 7.41247C3.10069 7.64028 2.73134 7.64028 2.50354 7.41247C2.27573 7.18467 2.27573 6.81532 2.50354 6.58752L6.58687 2.50418C6.81468 2.27638 7.18402 2.27638 7.41183 2.50418L11.4952 6.58752C11.723 6.81532 11.723 7.18467 11.4952 7.41247Z" fill="#282828"/>
</g>
</svg>
