<svg width="23" height="23" viewBox="0 0 23 23" fill="none" xmlns="http://www.w3.org/2000/svg">
<g id="cross" clip-path="url(#clip0_437_2134)">
<path id="Vector" d="M4.45831 10.2804L10.2811 10.2804L10.2811 4.48778C10.277 4.35571 10.2996 4.22417 10.3475 4.10104C10.3955 3.97792 10.4678 3.86574 10.5602 3.77125C10.7602 3.57121 11.0315 3.45883 11.3144 3.45883C11.5973 3.45883 11.8686 3.57121 12.0687 3.77125C12.1629 3.86196 12.2376 3.97097 12.2882 4.0916C12.3388 4.21222 12.3642 4.34191 12.3628 4.4727L12.3251 10.303L18.1932 10.303C18.4391 10.3003 18.6767 10.3921 18.8569 10.5595C19.0569 10.7595 19.1693 11.0308 19.1693 11.3137C19.1693 11.5966 19.0569 11.8679 18.8569 12.068C18.7648 12.1681 18.6528 12.2479 18.5282 12.3025C18.4035 12.357 18.2689 12.385 18.1328 12.3848L12.3477 12.347L12.3477 18.1547C12.3498 18.2843 12.3263 18.413 12.2784 18.5334C12.2305 18.6538 12.1592 18.7635 12.0687 18.8562C11.8686 19.0562 11.5973 19.1686 11.3144 19.1686C11.0315 19.1686 10.7602 19.0562 10.5602 18.8562C10.4659 18.7655 10.3912 18.6565 10.3407 18.5358C10.2901 18.4152 10.2647 18.2855 10.266 18.1547L10.3037 12.3244L4.43569 12.3244C4.18976 12.3271 3.95218 12.2353 3.77195 12.068C3.57191 11.8679 3.45953 11.5966 3.45953 11.3137C3.45953 11.0308 3.57191 10.7595 3.77195 10.5595C3.95523 10.3807 4.20187 10.2804 4.45831 10.2804Z" fill="#145EB6"/>
</g>
<defs>
<clipPath id="clip0_437_2134">
<rect width="16" height="16" fill="white" transform="translate(0 11.3137) rotate(-45)"/>
</clipPath>
</defs>
</svg>
