<svg width="14" height="14" viewBox="0 0 14 14" fill="none" xmlns="http://www.w3.org/2000/svg">
<g id="arrow-down">
<path id="Vector (Stroke)" fill-rule="evenodd" clip-rule="evenodd" d="M7.00065 11.6667C6.67848 11.6667 6.41732 11.4055 6.41732 11.0833L6.41732 2.91666C6.41732 2.59449 6.67848 2.33332 7.00065 2.33332C7.32282 2.33332 7.58398 2.59449 7.58398 2.91666L7.58398 11.0833C7.58398 11.4055 7.32282 11.6667 7.00065 11.6667Z" fill="#23B40C"/>
<path id="Vector (Stroke)_2" fill-rule="evenodd" clip-rule="evenodd" d="M11.4952 7.41249C11.2674 7.6403 10.898 7.6403 10.6702 7.41249L6.99935 3.74163L3.32849 7.41249C3.10069 7.6403 2.73134 7.6403 2.50354 7.41249C2.27573 7.18468 2.27573 6.81534 2.50354 6.58753L6.58687 2.5042C6.81467 2.27639 7.18402 2.27639 7.41183 2.5042L11.4952 6.58753C11.723 6.81534 11.723 7.18468 11.4952 7.41249Z" fill="#23B40C"/>
</g>
</svg>
