<svg width="14" height="14" viewBox="0 0 14 14" fill="none" xmlns="http://www.w3.org/2000/svg">
<g id="arrow-down">
<path id="Vector (Stroke)" fill-rule="evenodd" clip-rule="evenodd" d="M6.99935 2.33331C7.32152 2.33331 7.58268 2.59448 7.58268 2.91665V11.0833C7.58268 11.4055 7.32152 11.6666 6.99935 11.6666C6.67718 11.6666 6.41602 11.4055 6.41602 11.0833V2.91665C6.41602 2.59448 6.67718 2.33331 6.99935 2.33331Z" fill="#FF3D00"/>
<path id="Vector (Stroke)_2" fill-rule="evenodd" clip-rule="evenodd" d="M2.50484 6.58754C2.73264 6.35974 3.10199 6.35974 3.3298 6.58754L7.00065 10.2584L10.6715 6.58754C10.8993 6.35974 11.2687 6.35974 11.4965 6.58754C11.7243 6.81535 11.7243 7.18469 11.4965 7.4125L7.41313 11.4958C7.18532 11.7236 6.81598 11.7236 6.58817 11.4958L2.50484 7.4125C2.27703 7.18469 2.27703 6.81535 2.50484 6.58754Z" fill="#FF3D00"/>
</g>
</svg>
