<svg width="20" height="22" viewBox="0 0 20 22" fill="none" xmlns="http://www.w3.org/2000/svg">
<g id="calendar">
<path id="Vector" d="M15.8327 3.50311H14.166V2.62548C14.166 2.39273 14.0782 2.1695 13.9219 2.00491C13.7657 1.84033 13.5537 1.74786 13.3327 1.74786C13.1117 1.74786 12.8997 1.84033 12.7434 2.00491C12.5871 2.1695 12.4993 2.39273 12.4993 2.62548V3.50311L7.49935 3.50311V2.62548C7.49935 2.39273 7.41155 2.1695 7.25527 2.00491C7.09899 1.84033 6.88703 1.74786 6.66602 1.74786C6.445 1.74786 6.23304 1.84033 6.07676 2.00491C5.92048 2.1695 5.83268 2.39273 5.83268 2.62548V3.50311L4.16602 3.50311C3.50297 3.50311 2.86709 3.7805 2.39825 4.27425C1.92941 4.76801 1.66602 5.43769 1.66602 6.13597L1.66602 16.6674C1.66602 17.3657 1.92941 18.0354 2.39825 18.5291C2.86709 19.0229 3.50297 19.3003 4.16602 19.3003L15.8327 19.3003C16.4957 19.3003 17.1316 19.0229 17.6005 18.5291C18.0693 18.0354 18.3327 17.3657 18.3327 16.6674V6.13597C18.3327 5.43769 18.0693 4.76801 17.6005 4.27425C17.1316 3.7805 16.4957 3.50311 15.8327 3.50311ZM16.666 16.6674C16.666 16.9002 16.5782 17.1234 16.4219 17.288C16.2657 17.4526 16.0537 17.545 15.8327 17.545H4.16602C3.945 17.545 3.73304 17.4526 3.57676 17.288C3.42048 17.1234 3.33268 16.9002 3.33268 16.6674L3.33268 10.5241L16.666 10.5241V16.6674ZM16.666 8.76883L3.33268 8.76883L3.33268 6.13597C3.33268 5.90321 3.42048 5.67998 3.57676 5.5154C3.73304 5.35081 3.945 5.25835 4.16602 5.25835H5.83268L5.83268 6.13597C5.83268 6.36873 5.92048 6.59196 6.07676 6.75654C6.23304 6.92113 6.445 7.01359 6.66602 7.01359C6.88703 7.01359 7.09899 6.92113 7.25527 6.75654C7.41155 6.59196 7.49935 6.36873 7.49935 6.13597L7.49935 5.25835L12.4993 5.25835V6.13597C12.4993 6.36873 12.5871 6.59196 12.7434 6.75654C12.8997 6.92113 13.1117 7.01359 13.3327 7.01359C13.5537 7.01359 13.7657 6.92113 13.9219 6.75654C14.0782 6.59196 14.166 6.36873 14.166 6.13597V5.25835H15.8327C16.0537 5.25835 16.2657 5.35081 16.4219 5.5154C16.5782 5.67998 16.666 5.90321 16.666 6.13597V8.76883Z" fill="#8D8D8D"/>
</g>
</svg>
