<svg width="155" height="155" viewBox="0 0 155 155" fill="none" xmlns="http://www.w3.org/2000/svg">
<g id="Group 121">
<path id="Ellipse 39" d="M77.5 155C67.3226 155 57.2448 152.995 47.842 149.101C38.4393 145.206 29.8958 139.497 22.6992 132.301C15.5027 125.104 9.79408 116.561 5.89935 107.158C2.0046 97.7552 1.14263e-05 87.6774 1.18712e-05 77.5L15.5 77.5C15.5 85.642 17.1037 93.7042 20.2195 101.226C23.3353 108.749 27.9022 115.583 33.6594 121.341C39.4166 127.098 46.2514 131.665 53.7736 134.781C61.2958 137.896 69.358 139.5 77.5 139.5L77.5 155Z" fill="#F34C4C"/>
<path id="Ellipse 40" d="M2.20341e-05 77.5C2.29238e-05 67.3225 2.00462 57.2448 5.89936 47.842C9.79411 38.4393 15.5027 29.8958 22.6992 22.6992C29.8958 15.5027 38.4393 9.79407 47.8421 5.89934C57.2448 2.0046 67.3226 7.59378e-06 77.5 8.48352e-06L77.5 15.5C69.3581 15.5 61.2958 17.1037 53.7736 20.2195C46.2515 23.3353 39.4166 27.9022 33.6594 33.6594C27.9022 39.4166 23.3353 46.2514 20.2195 53.7736C17.1037 61.2958 15.5 69.358 15.5 77.5L2.20341e-05 77.5Z" fill="#41BD46"/>
<path id="Ellipse 41" d="M77.5 1.18712e-05C87.6774 1.14263e-05 97.7552 2.0046 107.158 5.89935C116.561 9.79409 125.104 15.5027 132.301 22.6992C139.497 29.8958 145.206 38.4393 149.101 47.842C152.995 57.2448 155 67.3226 155 77.5C155 87.6774 152.995 97.7552 149.101 107.158C145.206 116.561 139.497 125.104 132.301 132.301C125.104 139.497 116.561 145.206 107.158 149.101C97.7552 152.995 87.6774 155 77.5 155L77.5 139.5C85.6419 139.5 93.7042 137.896 101.226 134.781C108.749 131.665 115.583 127.098 121.341 121.341C127.098 115.583 131.665 108.749 134.781 101.226C137.896 93.7042 139.5 85.642 139.5 77.5C139.5 69.358 137.896 61.2958 134.781 53.7736C131.665 46.2514 127.098 39.4166 121.341 33.6594C115.583 27.9022 108.749 23.3353 101.226 20.2195C93.7042 17.1037 85.6419 15.5 77.5 15.5L77.5 1.18712e-05Z" fill="#335ECD"/>
</g>
</svg>
