<svg width="20" height="22" viewBox="0 0 20 22" fill="none" xmlns="http://www.w3.org/2000/svg">
<g id="clock">
<path id="Vector (Stroke)" fill-rule="evenodd" clip-rule="evenodd" d="M10.0007 2.62542C5.85851 2.62542 2.50065 6.16174 2.50065 10.524C2.50065 14.8863 5.85851 18.4226 10.0006 18.4226C14.1428 18.4226 17.5006 14.8863 17.5006 10.524C17.5006 6.16174 14.1428 2.62542 10.0007 2.62542ZM0.833983 10.524C0.833984 5.19235 4.93804 0.870179 10.0007 0.87018C15.0633 0.870181 19.1673 5.19235 19.1673 10.524C19.1673 15.8557 15.0633 20.1778 10.0006 20.1778C4.93804 20.1778 0.833982 15.8557 0.833983 10.524Z" fill="#8D8D8D"/>
<path id="Vector (Stroke)_2" fill-rule="evenodd" clip-rule="evenodd" d="M9.99935 4.38068C10.4596 4.38068 10.8327 4.7736 10.8327 5.2583L10.8327 9.98162L13.7054 11.4943C14.117 11.7111 14.2839 12.2382 14.078 12.6718C13.8722 13.1053 13.3717 13.281 12.96 13.0642L9.62667 11.309C9.34435 11.1603 9.16601 10.8564 9.16601 10.524L9.16602 5.2583C9.16602 4.7736 9.53911 4.38068 9.99935 4.38068Z" fill="#8D8D8D"/>
</g>
</svg>
