<svg width="20" height="22" viewBox="0 0 20 22" fill="none" xmlns="http://www.w3.org/2000/svg">
<g id="mdi:car-outline">
<path id="Vector" d="M15.75 5.25836C15.5833 4.73179 15.0833 4.38074 14.5833 4.38074L5.41667 4.38074C4.83333 4.38074 4.41667 4.73179 4.25 5.25836L2.5 10.5241L2.5 17.5451C2.5 17.9839 2.91667 18.4227 3.33333 18.4227H4.16667C4.66667 18.4227 5 17.9839 5 17.5451V16.6674H15V17.5451C15 17.9839 15.4167 18.4227 15.8333 18.4227H16.6667C17.0833 18.4227 17.5 17.9839 17.5 17.5451V10.5241L15.75 5.25836ZM5.66667 6.13598L14.25 6.13598L15.1667 8.76884L4.83333 8.76884L5.66667 6.13598ZM15.8333 14.9122L4.16667 14.9122L4.16667 10.5241L15.8333 10.5241L15.8333 14.9122ZM6.25 11.4017C6.91667 11.4017 7.5 12.016 7.5 12.7181C7.5 13.4202 6.91667 14.0346 6.25 14.0346C5.58333 14.0346 5 13.4202 5 12.7181C5 12.016 5.58333 11.4017 6.25 11.4017ZM13.75 11.4017C14.4167 11.4017 15 12.016 15 12.7181C15 13.4202 14.4167 14.0346 13.75 14.0346C13.0833 14.0346 12.5 13.4202 12.5 12.7181C12.5 12.016 13.0833 11.4017 13.75 11.4017Z" fill="#8D8D8D"/>
</g>
</svg>
