<svg width="36" height="36" viewBox="0 0 36 36" fill="none" xmlns="http://www.w3.org/2000/svg">
<g id="bx:like">
<path id="Vector" d="M30 12H21.582L23.2665 6.9495C23.5695 6.0375 23.4165 5.0265 22.854 4.2465C22.2915 3.4665 21.3795 3 20.418 3H18C17.5545 3 17.133 3.198 16.8465 3.54L9.7965 12H6C4.3455 12 3 13.3455 3 15V28.5C3 30.1545 4.3455 31.5 6 31.5H25.9605C26.5708 31.498 27.1662 31.3108 27.6678 30.9631C28.1695 30.6155 28.5538 30.1238 28.77 29.553L32.9055 18.5265C32.9683 18.3581 33.0003 18.1797 33 18V15C33 13.3455 31.6545 12 30 12ZM6 15H9V28.5H6V15ZM30 17.7285L25.9605 28.5H12V14.043L18.702 6H20.421L18.078 13.0245C18.0019 13.25 17.9807 13.4903 18.0161 13.7256C18.0515 13.961 18.1425 14.1844 18.2815 14.3776C18.4205 14.5707 18.6036 14.7279 18.8155 14.8361C19.0274 14.9444 19.262 15.0006 19.5 15H30V17.7285Z" fill="#145EB6"/>
</g>
</svg>
