<svg width="36" height="36" viewBox="0 0 36 36" fill="none" xmlns="http://www.w3.org/2000/svg">
<g id="star">
<path id="Vector (Stroke)" fill-rule="evenodd" clip-rule="evenodd" d="M15.9829 3.69854C16.8083 2.02641 19.1927 2.02641 20.0181 3.69854L23.6319 11.0197L31.7146 12.2011C33.5594 12.4708 34.2947 14.7384 32.9591 16.0393L27.1123 21.734L28.492 29.7784C28.8073 31.6166 26.8778 33.0182 25.2271 32.1502L18.0005 28.3498L10.7739 32.1502C9.12325 33.0182 7.19376 31.6166 7.50903 29.7784L8.88873 21.7341L3.04193 16.0393C1.70634 14.7384 2.44161 12.4708 4.28641 12.2011L12.3691 11.0197L15.9829 3.69854ZM18.0005 6.38888L14.8849 12.7008C14.5574 13.3642 13.9248 13.8242 13.1927 13.9312L6.22313 14.9499L11.2645 19.8602C11.7952 20.3771 12.0375 21.1222 11.9122 21.8524L10.7228 28.7875L16.9532 25.511C17.6089 25.1662 18.3922 25.1662 19.0478 25.511L25.2782 28.7875L24.0888 21.8524C23.9636 21.1222 24.2058 20.3771 24.7365 19.8602L29.7779 14.9499L22.8083 13.9312C22.0762 13.8242 21.4436 13.3642 21.1161 12.7008L18.0005 6.38888Z" fill="#145EB6"/>
</g>
</svg>
