<svg width="64" height="22" viewBox="0 0 64 22" fill="none" xmlns="http://www.w3.org/2000/svg">
<g id="294654_visa_icon" clip-path="url(#clip0_437_1973)">
<g id="&#229;&#189;&#162;&#231;&#138;&#182;_1_3_">
<g id="&#229;&#189;&#162;&#231;&#138;&#182;_1">
<g id="Group">
<path id="Vector" fill-rule="evenodd" clip-rule="evenodd" d="M25.8921 1.21709L22.684 20.933H27.8167L31.0252 1.21709H25.8921ZM18.3654 1.21709L13.4717 14.7775L12.8929 11.8575L12.8933 11.8585L12.7657 11.204C12.1735 9.92758 10.8018 7.50164 8.21162 5.43131C7.44586 4.81936 6.67395 4.29709 5.92773 3.85098L10.3753 20.933H15.7232L23.8898 1.21709H18.3654ZM38.3976 6.69063C38.3976 4.46156 43.3965 4.74799 45.593 5.95836L46.3254 1.72391C46.3254 1.72391 44.0649 0.86422 41.7087 0.86422C39.1613 0.86422 33.1125 1.9782 33.1125 7.39104C33.1125 12.4852 40.212 12.5485 40.212 15.223C40.212 17.8975 33.8445 17.4195 31.7431 15.7324L30.9794 20.1584C30.9794 20.1584 33.2712 21.2724 36.7738 21.2724C40.276 21.2724 45.561 19.458 45.561 14.5226C45.561 9.39657 38.3976 8.91914 38.3976 6.69063ZM59.3429 1.21709H55.2161C53.3105 1.21709 52.8465 2.68641 52.8465 2.68641L45.1919 20.933H50.5418L51.612 18.0047H58.1373L58.7393 20.933H63.4523L59.3429 1.21709ZM53.0912 13.9587L55.7884 6.58057L57.3057 13.9587H53.0912Z" fill="#005BAC"/>
</g>
</g>
</g>
<g id="&#229;&#189;&#162;&#231;&#138;&#182;_1_2_">
<g id="&#229;&#189;&#162;&#231;&#138;&#182;_1_1_">
<g id="Group_2">
<path id="Vector_2" fill-rule="evenodd" clip-rule="evenodd" d="M11.2375 3.07332C11.2375 3.07332 11.0251 1.29393 8.75689 1.29393H0.516445L0.419922 1.62834C0.419922 1.62834 4.38094 2.4358 8.18104 5.46098C11.8126 8.35231 12.9972 11.9565 12.9972 11.9565L11.2375 3.07332Z" fill="#F6AC1D"/>
</g>
</g>
</g>
</g>
<defs>
<clipPath id="clip0_437_1973">
<rect width="64" height="22" fill="white"/>
</clipPath>
</defs>
</svg>
