<svg width="14" height="14" viewBox="0 0 14 14" fill="none" xmlns="http://www.w3.org/2000/svg">
<g id="cross">
<path id="Vector" d="M3.39801 2.11867L7.00067 5.72134L10.5847 2.13734C10.6638 2.05307 10.7592 1.98566 10.8651 1.93915C10.9709 1.89264 11.0851 1.86799 11.2007 1.86667C11.4482 1.86667 11.6856 1.965 11.8606 2.14004C12.0357 2.31507 12.134 2.55247 12.134 2.8C12.1362 2.91443 12.115 3.0281 12.0716 3.13402C12.0283 3.23995 11.9638 3.33591 11.882 3.416L8.25134 7L11.882 10.6307C12.0358 10.7812 12.126 10.985 12.134 11.2C12.134 11.4475 12.0357 11.6849 11.8606 11.86C11.6856 12.035 11.4482 12.1333 11.2007 12.1333C11.0817 12.1383 10.963 12.1184 10.8522 12.075C10.7413 12.0317 10.6407 11.9657 10.5567 11.8813L7.00067 8.27867L3.40734 11.872C3.32848 11.9535 3.23427 12.0185 3.13014 12.0633C3.02602 12.1082 2.91404 12.132 2.80067 12.1333C2.55314 12.1333 2.31574 12.035 2.14071 11.86C1.96567 11.6849 1.86734 11.4475 1.86734 11.2C1.86516 11.0856 1.88639 10.9719 1.92973 10.866C1.97306 10.7601 2.03759 10.6641 2.11934 10.584L5.75001 7L2.11934 3.36934C1.96551 3.21884 1.87531 3.01505 1.86734 2.8C1.86734 2.55247 1.96567 2.31507 2.14071 2.14004C2.31574 1.965 2.55314 1.86667 2.80067 1.86667C3.02467 1.86947 3.23934 1.96 3.39801 2.11867Z" fill="#A7A7A7"/>
</g>
</svg>
