<svg width="70" height="50" viewBox="0 0 70 50" fill="none" xmlns="http://www.w3.org/2000/svg">
<g id="mc_symbol">
<g id="Group">
<g id="Group_2">
<path id="Vector" d="M42.2159 11.8967H27.748V38.1033H42.2159V11.8967Z" fill="#FF5F00"/>
<path id="Vector_2" d="M28.6659 25C28.6636 22.4761 29.231 19.9848 30.3251 17.7146C31.4193 15.4444 33.0114 13.4549 34.9812 11.8967C32.542 9.96413 29.6125 8.76229 26.5277 8.42855C23.4429 8.09482 20.3272 8.64264 17.5367 10.0094C14.7462 11.3762 12.3934 13.5068 10.7474 16.1577C9.1014 18.8085 8.22852 21.8727 8.22852 25C8.22852 28.1273 9.1014 31.1915 10.7474 33.8423C12.3934 36.4932 14.7462 38.6238 17.5367 39.9906C20.3272 41.3574 23.4429 41.9052 26.5277 41.5715C29.6125 41.2377 32.542 40.0359 34.9812 38.1033C33.0115 36.5451 31.4193 34.5556 30.3252 32.2854C29.231 30.0152 28.6636 27.5239 28.6659 25Z" fill="#EB001B"/>
<path id="Vector_3" d="M61.7323 25C61.7324 28.1272 60.8596 31.1914 59.2137 33.8423C57.5678 36.4932 55.2151 38.6238 52.4246 39.9905C49.6342 41.3573 46.5185 41.9052 43.4337 41.5715C40.349 41.2377 37.4196 40.0359 34.9805 38.1033C36.9484 36.5435 38.5394 34.5537 39.6333 32.2839C40.7273 30.014 41.2957 27.5235 41.2957 25C41.2957 22.4765 40.7273 19.986 39.6333 17.7161C38.5394 15.4463 36.9484 13.4565 34.9805 11.8967C37.4196 9.96412 40.349 8.76228 43.4337 8.42855C46.5185 8.09482 49.6342 8.64266 52.4246 10.0095C55.2151 11.3763 57.5678 13.5068 59.2137 16.1577C60.8596 18.8086 61.7324 21.8728 61.7323 25Z" fill="#F79E1B"/>
<path id="Vector_4" d="M60.1562 35.3276V34.7911H60.3708V34.6818H59.8242V34.7911H60.0389V35.3276H60.1562ZM61.2174 35.3276V34.6807H61.0499L60.8571 35.1257L60.6644 34.6807H60.4967V35.3276H60.615V34.8397L60.7958 35.2604H60.9185L61.0992 34.8386V35.3276H61.2174Z" fill="#F79E1B"/>
</g>
</g>
</g>
</svg>
