<svg width="24" height="24" viewBox="0 0 24 24" fill="none" xmlns="http://www.w3.org/2000/svg">
<g id="wellet +">
<path id="Vector (Stroke)" fill-rule="evenodd" clip-rule="evenodd" d="M4.5 7.5C3.67157 7.5 3 8.17157 3 9V18C3 18.8284 3.67157 19.5 4.5 19.5H19.5C20.3284 19.5 21 18.8284 21 18V9C21 8.17157 20.3284 7.5 19.5 7.5H4.5ZM1.5 9C1.5 7.34315 2.84315 6 4.5 6H19.5C21.1569 6 22.5 7.34315 22.5 9V18C22.5 19.6569 21.1569 21 19.5 21H4.5C2.84315 21 1.5 19.6569 1.5 18V9Z" fill="#A7A7A7"/>
<path id="Vector (Stroke)_2" fill-rule="evenodd" clip-rule="evenodd" d="M16.3672 2.304C16.812 2.22038 17.2698 2.23538 17.7083 2.34799C18.1493 2.46124 18.5598 2.67041 18.9106 2.96059C19.2614 3.25076 19.5439 3.61479 19.7378 4.0267C19.9317 4.4386 20.0324 4.88823 20.0325 5.3435V6.74999H18.5325V5.34398C18.5325 5.3439 18.5325 5.34407 18.5325 5.34398C18.5324 5.10953 18.4806 4.87775 18.3807 4.66563C18.2808 4.45344 18.1353 4.26591 17.9546 4.11642C17.7738 3.96694 17.5624 3.85918 17.3352 3.80084C17.108 3.7425 16.8708 3.73502 16.6404 3.77892L16.6262 3.78149L4.28898 5.88719C3.92699 5.95771 3.60059 6.15161 3.36549 6.43594C3.12901 6.72194 2.99975 7.0815 3 7.45261L3 9.74999H1.5V7.45334C1.5 7.45327 1.5 7.45342 1.5 7.45334C1.49963 6.73314 1.75054 6.03514 2.20949 5.48009C2.66854 4.92491 3.30695 4.54733 4.0146 4.41247L4.02882 4.4099L16.3672 2.304Z" fill="#A7A7A7"/>
<path id="Vector" d="M17.25 15C16.9533 15 16.6633 14.912 16.4166 14.7472C16.17 14.5824 15.9777 14.3481 15.8642 14.074C15.7506 13.7999 15.7209 13.4983 15.7788 13.2074C15.8367 12.9164 15.9796 12.6491 16.1893 12.4393C16.3991 12.2296 16.6664 12.0867 16.9574 12.0288C17.2483 11.9709 17.5499 12.0006 17.824 12.1142C18.0981 12.2277 18.3324 12.42 18.4972 12.6666C18.662 12.9133 18.75 13.2033 18.75 13.5C18.75 13.8978 18.592 14.2794 18.3107 14.5607C18.0294 14.842 17.6478 15 17.25 15Z" fill="#A7A7A7"/>
<circle id="Ellipse 29" cx="20" cy="20" r="3.5" fill="white" stroke="#A7A7A7"/>
<path id="Line 13" d="M20 18.5V21.5" stroke="#A7A7A7" stroke-linecap="round"/>
<path id="Line 14" d="M21.5 20L18.5 20" stroke="#A7A7A7" stroke-linecap="round"/>
</g>
</svg>
