<svg width="13" height="12" viewBox="0 0 13 12" fill="none" xmlns="http://www.w3.org/2000/svg">
<g id="Question mark">
<rect x="0.943359" width="12.0307" height="12" rx="6" fill="#A7A7A7"/>
<path id="Vector" d="M6.89939 8.43964C6.6777 8.43964 6.48909 8.51512 6.33275 8.66646C6.17629 8.8178 6.09811 9.00162 6.09811 9.21707C6.09811 9.46101 6.17721 9.65209 6.33518 9.7913C6.49372 9.93039 6.6777 10 6.88875 10C7.10338 10 7.29037 9.93139 7.45041 9.7938C7.61046 9.65659 7.69002 9.46451 7.69002 9.2172C7.69002 9.00162 7.6137 8.81792 7.46094 8.66658C7.30783 8.51512 7.12084 8.43964 6.89939 8.43964ZM9.15889 3.08298C8.95582 2.74931 8.66499 2.48175 8.2939 2.2888C7.92546 2.09673 7.49621 2 7.01722 2C6.50193 2 6.04341 2.11635 5.65486 2.34616C5.2655 2.57586 4.96541 2.87078 4.76165 3.22344C4.55651 3.57723 4.45312 3.93289 4.45312 4.2808C4.45312 4.46701 4.52436 4.64034 4.66486 4.79618C4.80606 4.95289 4.98183 5.03237 5.18698 5.03237C5.53621 5.03237 5.77559 4.80992 5.89713 4.37491C6.0078 4.01412 6.14414 3.73957 6.30187 3.55749C6.45035 3.38603 6.69112 3.2993 7.01734 3.2993C7.29869 3.2993 7.52061 3.38453 7.69673 3.55998C7.87019 3.73344 7.95449 3.94039 7.95449 4.19208C7.95554 4.31395 7.92712 4.43401 7.87204 4.54036C7.8135 4.65393 7.74065 4.75815 7.65556 4.85004C7.56536 4.94751 7.41665 5.0946 7.21335 5.28655C6.97652 5.51087 6.78536 5.70795 6.64579 5.87053C6.49819 6.04462 6.37964 6.24504 6.2954 6.46288C6.20739 6.68833 6.16287 6.95676 6.16287 7.26106C6.16287 7.52112 6.22994 7.72244 6.36258 7.85966C6.49383 7.99588 6.65723 8.06498 6.84862 8.06498C7.21451 8.06498 7.44428 7.84891 7.51251 7.44476C7.5479 7.27668 7.57369 7.15921 7.59115 7.0921C7.60699 7.03137 7.62989 6.96913 7.65938 6.9069C7.68794 6.84666 7.73327 6.77806 7.79398 6.70257C7.85747 6.62372 7.94385 6.53062 8.0492 6.42677C8.44342 6.04611 8.72142 5.77031 8.87568 5.6071C9.03481 5.43852 9.17357 5.23669 9.28864 5.0065C9.40613 4.77031 9.46591 4.493 9.46591 4.18195C9.46568 3.7878 9.3623 3.4184 9.15819 3.08335" fill="white"/>
</g>
</svg>
