<svg width="24" height="24" viewBox="0 0 24 24" fill="none" xmlns="http://www.w3.org/2000/svg">
<g id="user">
<path id="Vector (Stroke)" fill-rule="evenodd" clip-rule="evenodd" d="M4.46447 15.4645C5.40215 14.5268 6.67392 14 8 14H15C16.3261 14 17.5979 14.5268 18.5355 15.4645C19.4732 16.4021 20 17.6739 20 19V21C20 21.5523 19.5523 22 19 22C18.4477 22 18 21.5523 18 21V19C18 18.2044 17.6839 17.4413 17.1213 16.8787C16.5587 16.3161 15.7956 16 15 16H8C7.20435 16 6.44129 16.3161 5.87868 16.8787C5.31607 17.4413 5 18.2044 5 19V21C5 21.5523 4.55228 22 4 22C3.44772 22 3 21.5523 3 21V19C3 17.6739 3.52678 16.4021 4.46447 15.4645Z" fill="#A7A7A7"/>
<path id="Vector (Stroke)_2" fill-rule="evenodd" clip-rule="evenodd" d="M11.5 4C9.84315 4 8.5 5.34315 8.5 7C8.5 8.65685 9.84315 10 11.5 10C13.1569 10 14.5 8.65685 14.5 7C14.5 5.34315 13.1569 4 11.5 4ZM6.5 7C6.5 4.23858 8.73858 2 11.5 2C14.2614 2 16.5 4.23858 16.5 7C16.5 9.76142 14.2614 12 11.5 12C8.73858 12 6.5 9.76142 6.5 7Z" fill="#A7A7A7"/>
</g>
</svg>
