<svg width="8" height="8" viewBox="0 0 8 8" fill="none" xmlns="http://www.w3.org/2000/svg">
<g id="arrow down">
<path id="Vector" d="M7.00046 1.66666L1.00046 1.66666C0.939713 1.66685 0.880168 1.68361 0.828235 1.71512C0.776302 1.74663 0.733947 1.79172 0.705728 1.84551C0.677511 1.89931 0.664499 1.95978 0.668093 2.02042C0.671687 2.08106 0.691752 2.13958 0.726127 2.18966L3.72613 6.523C3.85046 6.70266 4.14979 6.70266 4.27446 6.523L7.27446 2.18966C7.30919 2.13968 7.32955 2.08114 7.33334 2.0204C7.33713 1.95965 7.3242 1.89904 7.29596 1.84513C7.26771 1.79122 7.22523 1.74608 7.17314 1.71461C7.12104 1.68315 7.06132 1.66657 7.00046 1.66666Z" fill="#A7A7A7"/>
</g>
</svg>
