<svg width="8" height="8" viewBox="0 0 8 8" fill="none" xmlns="http://www.w3.org/2000/svg">
<g id="arrow down">
<path id="Vector" d="M0.99954 6.33334L6.99954 6.33334C7.06029 6.33315 7.11983 6.31639 7.17177 6.28488C7.2237 6.25336 7.26605 6.20828 7.29427 6.15449C7.32249 6.10069 7.3355 6.04022 7.33191 5.97958C7.32831 5.91894 7.30825 5.86042 7.27387 5.81034L4.27387 1.477C4.14954 1.29734 3.85021 1.29734 3.72554 1.477L0.72554 5.81034C0.690815 5.86032 0.670452 5.91886 0.666662 5.9796C0.662872 6.04035 0.675801 6.10096 0.704045 6.15487C0.732288 6.20878 0.774765 6.25392 0.826862 6.28539C0.878958 6.31685 0.93868 6.33343 0.99954 6.33334Z" fill="#A7A7A7"/>
</g>
</svg>
