<svg width="8" height="16" viewBox="0 0 8 16" fill="none" xmlns="http://www.w3.org/2000/svg">
<path id="Mask" fill-rule="evenodd" clip-rule="evenodd" d="M6.65748 4.12153L5.47344 2.99192C5.21788 2.75032 4.80691 2.93112 4.80691 3.28233V15.2C4.80691 15.6416 4.44161 16 3.9994 16H4.00581C3.56359 16 3.2047 15.6416 3.2047 15.2V3.29433C3.2047 2.94152 2.7705 2.76152 2.51655 3.00632L1.34693 4.12953C1.02809 4.43353 0.51858 4.41993 0.217364 4.09753L0.214159 4.09593C-0.0838532 3.77753 -0.0694332 3.27833 0.248607 2.97832L2.92271 0.436708C3.54196 -0.148094 4.51131 -0.144896 5.12816 0.442308L7.75419 2.96152C8.06823 3.26073 8.08345 3.75593 7.78784 4.07353L7.77983 4.08233C7.48102 4.40313 6.97792 4.42073 6.65748 4.12153Z" fill="#82A608"/>
</svg>
