<svg width="23" height="24" viewBox="0 0 23 24" fill="none" xmlns="http://www.w3.org/2000/svg">
<g id="calendar">
<path id="calendar_2" fill-rule="evenodd" clip-rule="evenodd" d="M16.5 1.5H19.5C21.1567 1.5 22.5 2.84325 22.5 4.5V21C22.5 22.6567 21.1567 24 19.5 24H3C1.34325 24 0 22.6567 0 21V4.5C0 2.84325 1.34325 1.5 3 1.5H6V0.75C6 0.336 6.33525 0 6.75 0C7.16475 0 7.5 0.336 7.5 0.75V1.5H15V0.75C15 0.336 15.3352 0 15.75 0C16.1647 0 16.5 0.336 16.5 0.75V1.5ZM1.5 6H21V4.5C21 3.672 20.328 3 19.5 3H16.5V3.75C16.5 4.16475 16.1647 4.5 15.75 4.5C15.3352 4.5 15 4.16475 15 3.75V3H7.5V3.75C7.5 4.16475 7.16475 4.5 6.75 4.5C6.33525 4.5 6 4.16475 6 3.75V3H3C2.172 3 1.5 3.672 1.5 4.5V6ZM10.5 15H12C12.828 15 13.5 14.328 13.5 13.5V12C13.5 11.172 12.828 10.5 12 10.5H10.5C9.672 10.5 9 11.172 9 12V13.5C9 14.328 9.672 15 10.5 15ZM12 12H10.5V13.5H12V12ZM4.5 21H6C6.828 21 7.5 20.328 7.5 19.5V18C7.5 17.172 6.828 16.5 6 16.5H4.5C3.672 16.5 3 17.172 3 18V19.5C3 20.328 3.672 21 4.5 21ZM10.5 21H12C12.828 21 13.5 20.328 13.5 19.5V18C13.5 17.172 12.828 16.5 12 16.5H10.5C9.672 16.5 9 17.172 9 18V19.5C9 20.328 9.672 21 10.5 21ZM10.5 18H12V19.5H10.5V18ZM6 18H4.5V19.5H6V18ZM6 12H4.5V13.5H6V12ZM4.5 15H6C6.828 15 7.5 14.328 7.5 13.5V12C7.5 11.172 6.828 10.5 6 10.5H4.5C3.672 10.5 3 11.172 3 12V13.5C3 14.328 3.672 15 4.5 15ZM21 21C21 21.828 20.328 22.5 19.5 22.5H3C2.172 22.5 1.5 21.828 1.5 21V7.5H21V21ZM16.5 12H18V13.5H16.5V12ZM18 15H16.5C15.672 15 15 14.328 15 13.5V12C15 11.172 15.672 10.5 16.5 10.5H18C18.828 10.5 19.5 11.172 19.5 12V13.5C19.5 14.328 18.828 15 18 15ZM16.5 18H18V19.5H16.5V18ZM18 21H16.5C15.672 21 15 20.328 15 19.5V18C15 17.172 15.672 16.5 16.5 16.5H18C18.828 16.5 19.5 17.172 19.5 18V19.5C19.5 20.328 18.828 21 18 21Z" fill="#0465AC"/>
</g>
</svg>
