<svg width="24" height="24" viewBox="0 0 24 24" fill="none" xmlns="http://www.w3.org/2000/svg">
<g id="clock">
<path id="Shape" fill-rule="evenodd" clip-rule="evenodd" d="M0 12C0 18.6 5.4 24 12 24C18.6 24 24 18.6 24 12C24 5.4 18.6 0 12 0C5.4 0 0 5.4 0 12ZM2 12C2 6.5 6.5 2 12 2C17.5 2 22 6.5 22 12C22 17.5 17.5 22 12 22C6.5 22 2 17.5 2 12Z" fill="#0465AC"/>
<path id="Path" d="M12 13C11.4 13 11 12.6 11 12V5C11 4.4 11.4 4 12 4C12.6 4 13 4.4 13 5V12C13 12.6 12.6 13 12 13Z" fill="#0465AC"/>
<path id="Path_2" d="M16 17C15.7 17 15.5 16.9 15.3 16.7L11.3 12.7C10.9 12.3 10.9 11.7 11.3 11.3C11.7 10.9 12.3 10.9 12.7 11.3L16.7 15.3C17.1 15.7 17.1 16.3 16.7 16.7C16.5 16.9 16.3 17 16 17Z" fill="#0465AC"/>
</g>
</svg>
