<svg width="8" height="20" viewBox="0 0 8 20" fill="none" xmlns="http://www.w3.org/2000/svg">
<g id="icone/maniglia">
<path id="maniglia" fill-rule="evenodd" clip-rule="evenodd" d="M0.400052 0.0742232C0.450607 0.024837 0.51047 0 0.579641 0H2.11227C2.18145 0 2.24131 0.0247411 2.29186 0.0742232C2.34242 0.123705 2.3677 0.182298 2.3677 0.25V1.7501C2.3677 1.81789 2.34242 1.87649 2.29186 1.92597C2.24131 1.97545 2.18145 2 2.11227 2H0.579641C0.51047 2 0.450607 1.97535 0.400052 1.92597C0.349496 1.87639 0.324219 1.81789 0.324219 1.7501V0.25C0.324219 0.182298 0.349496 0.12361 0.400052 0.0742232ZM0.400052 6.07422C0.450607 6.02474 0.51047 6 0.579641 6H2.11227C2.18145 6 2.24131 6.02484 2.29186 6.07422C2.34242 6.1237 2.3677 6.18229 2.3677 6.24999V7.75001C2.3677 7.81771 2.34242 7.8763 2.29186 7.92578C2.24131 7.97536 2.18145 8 2.11227 8H0.579641C0.51047 8 0.450607 7.97526 0.400052 7.92578C0.349496 7.8763 0.324219 7.81771 0.324219 7.75001V6.24999C0.324219 6.18229 0.349496 6.1237 0.400052 6.07422ZM0.579641 12C0.51047 12 0.450607 12.0247 0.400052 12.0742C0.349496 12.1237 0.324219 12.1823 0.324219 12.25V13.75C0.324219 13.8177 0.349496 13.8763 0.400052 13.9258C0.450607 13.9753 0.51047 14 0.579641 14H2.11227C2.18145 14 2.24131 13.9754 2.29186 13.9258C2.34242 13.8763 2.3677 13.8177 2.3677 13.75V12.25C2.3677 12.1823 2.34242 12.1237 2.29186 12.0742C2.24131 12.0248 2.18145 12 2.11227 12H0.579641ZM0.400052 18.0742C0.450607 18.0247 0.51047 18 0.579641 18H2.11227C2.18145 18 2.24131 18.0248 2.29186 18.0742C2.34242 18.1237 2.3677 18.1823 2.3677 18.25V19.75C2.3677 19.8177 2.34242 19.8763 2.29186 19.9258C2.24131 19.9754 2.18145 20 2.11227 20H0.579641C0.51047 20 0.450607 19.9753 0.400052 19.9258C0.349496 19.8763 0.324219 19.8177 0.324219 19.75V18.25C0.324219 18.1823 0.349496 18.1237 0.400052 18.0742ZM5.68834 0C5.61917 0 5.5593 0.024837 5.50875 0.0742232C5.45819 0.12361 5.43291 0.182298 5.43291 0.25V1.7501C5.43291 1.81789 5.45819 1.87639 5.50875 1.92597C5.5593 1.97535 5.61917 2 5.68834 2H7.22097C7.29014 2 7.35 1.97545 7.40056 1.92597C7.45112 1.87649 7.47639 1.81789 7.47639 1.7501V0.25C7.47639 0.182298 7.45112 0.123705 7.40056 0.0742232C7.35 0.0247411 7.29014 0 7.22097 0H5.68834ZM5.50875 6.07422C5.5593 6.02474 5.61917 6 5.68834 6H7.22097C7.29014 6 7.35 6.02484 7.40056 6.07422C7.45112 6.1237 7.47639 6.18229 7.47639 6.24999V7.75001C7.47639 7.81771 7.45112 7.8763 7.40056 7.92578C7.35 7.97536 7.29014 8 7.22097 8H5.68834C5.61917 8 5.5593 7.97526 5.50875 7.92578C5.45819 7.8763 5.43291 7.81771 5.43291 7.75001V6.24999C5.43291 6.18229 5.45819 6.1237 5.50875 6.07422ZM5.68834 12C5.61917 12 5.5593 12.0247 5.50875 12.0742C5.45819 12.1237 5.43291 12.1823 5.43291 12.25V13.75C5.43291 13.8177 5.45819 13.8763 5.50875 13.9258C5.5593 13.9753 5.61917 14 5.68834 14H7.22097C7.29014 14 7.35 13.9754 7.40056 13.9258C7.45112 13.8763 7.47639 13.8177 7.47639 13.75V12.25C7.47639 12.1823 7.45112 12.1237 7.40056 12.0742C7.35 12.0248 7.29014 12 7.22097 12H5.68834ZM5.50875 18.0742C5.5593 18.0247 5.61917 18 5.68834 18H7.22097C7.29014 18 7.35 18.0248 7.40056 18.0742C7.45112 18.1237 7.47639 18.1823 7.47639 18.25V19.75C7.47639 19.8177 7.45112 19.8763 7.40056 19.9258C7.35 19.9754 7.29014 20 7.22097 20H5.68834C5.61917 20 5.5593 19.9753 5.50875 19.9258C5.45819 19.8763 5.43291 19.8177 5.43291 19.75V18.25C5.43291 18.1823 5.45819 18.1237 5.50875 18.0742Z" fill="#999999"/>
</g>
</svg>
