<svg width="20" height="24" viewBox="0 0 20 24" fill="none" xmlns="http://www.w3.org/2000/svg">
<g id="stats">
<path id="stats_2" fill-rule="evenodd" clip-rule="evenodd" d="M9.23077 0H10.7692C11.6185 0 12.3077 0.672 12.3077 1.5V22.5C12.3077 23.328 11.6185 24 10.7692 24H9.23077C8.38154 24 7.69231 23.328 7.69231 22.5V1.5C7.69231 0.672 8.38154 0 9.23077 0ZM10.7692 21.75C10.7692 22.1647 10.4254 22.5 10 22.5C9.57462 22.5 9.23077 22.1647 9.23077 21.75V2.25C9.23077 1.83525 9.57462 1.5 10 1.5C10.4254 1.5 10.7692 1.83525 10.7692 2.25V21.75ZM1.53846 6.75H3.07692C3.92615 6.75 4.61538 7.422 4.61538 8.25V22.5C4.61538 23.328 3.92615 24 3.07692 24H1.53846C0.689231 24 0 23.328 0 22.5V8.25C0 7.422 0.689231 6.75 1.53846 6.75ZM3.07692 21.75C3.07692 22.1647 2.73308 22.5 2.30769 22.5C1.88231 22.5 1.53846 22.1647 1.53846 21.75V9C1.53846 8.586 1.88231 8.25 2.30769 8.25C2.73308 8.25 3.07692 8.586 3.07692 9V21.75ZM16.9231 12H18.4615C19.3108 12 20 12.672 20 13.5V22.5C20 23.328 19.3108 24 18.4615 24H16.9231C16.0738 24 15.3846 23.328 15.3846 22.5V13.5C15.3846 12.672 16.0738 12 16.9231 12ZM17.6923 22.5C18.1177 22.5 18.4615 22.1647 18.4615 21.75V14.25C18.4615 13.836 18.1177 13.5 17.6923 13.5C17.2669 13.5 16.9231 13.836 16.9231 14.25V21.75C16.9231 22.1647 17.2669 22.5 17.6923 22.5Z" fill="#0465AC"/>
</g>
</svg>
