<svg width="26" height="29" viewBox="0 0 26 29" fill="none" xmlns="http://www.w3.org/2000/svg">
<g id="timer">
<path id="timer_2" fill-rule="evenodd" clip-rule="evenodd" d="M13.9318 3.85296C13.9296 3.86022 13.9274 3.86753 13.927 3.8757C20.353 4.36183 25.4201 9.71699 25.4201 16.2684C25.4201 23.1393 19.8506 28.7089 12.9796 28.7089C6.10858 28.7089 0.539062 23.1393 0.539062 16.2684C0.539062 9.71699 5.60618 4.36183 12.0322 3.8757C12.0317 3.86753 12.0295 3.86022 12.0274 3.85296C12.025 3.8449 12.0226 3.83691 12.0226 3.82785V1.91392H8.19476C7.66556 1.91392 7.2378 1.48616 7.2378 0.956962C7.2378 0.427762 7.66556 0 8.19476 0H17.7644C18.2936 0 18.7213 0.427762 18.7213 0.956962C18.7213 1.48616 18.2936 1.91392 17.7644 1.91392H13.9365V3.82785C13.9365 3.83691 13.9341 3.8449 13.9318 3.85296ZM12.9796 26.7949C7.16603 26.7949 2.45299 22.0819 2.45299 16.2684C2.45299 10.4548 7.16603 5.74177 12.9796 5.74177C18.7931 5.74177 23.5062 10.4548 23.5062 16.2684C23.5062 22.0819 18.7931 26.7949 12.9796 26.7949ZM13.9365 13.5736V8.61266C13.9365 8.08442 13.5088 7.6557 12.9796 7.6557C12.4504 7.6557 12.0226 8.08442 12.0226 8.61266V13.5736C10.9106 13.9688 10.1087 15.0195 10.1087 16.2684C10.1087 17.854 11.3939 19.1392 12.9796 19.1392C14.5653 19.1392 15.8505 17.854 15.8505 16.2684C15.8505 15.0195 15.0485 13.9688 13.9365 13.5736Z" fill="#0465AC"/>
</g>
</svg>
